<mxfile host="app.diagrams.net" modified="2023-07-07T11:18:43.538Z" agent="Mozilla/5.0 (Windows NT 10.0; Win64; x64) AppleWebKit/537.36 (KHTML, like Gecko) Chrome/114.0.0.0 Safari/537.36" etag="6nPkCaJQiUzKXBAu9CxE" version="21.5.2" type="github">
  <diagram name="第 1 页" id="VPXJXa9-LbLnZL5yBB70">
    <mxGraphModel dx="1259" dy="749" grid="1" gridSize="10" guides="1" tooltips="1" connect="1" arrows="1" fold="1" page="1" pageScale="1" pageWidth="827" pageHeight="1169" math="0" shadow="0">
      <root>
        <mxCell id="0" />
        <mxCell id="1" parent="0" />
        <mxCell id="9KcQcAq06cf9t4r9Tn52-6" style="edgeStyle=orthogonalEdgeStyle;rounded=0;orthogonalLoop=1;jettySize=auto;html=1;entryX=1;entryY=0.5;entryDx=0;entryDy=0;" edge="1" parent="1" source="9KcQcAq06cf9t4r9Tn52-1" target="9KcQcAq06cf9t4r9Tn52-4">
          <mxGeometry relative="1" as="geometry" />
        </mxCell>
        <mxCell id="9KcQcAq06cf9t4r9Tn52-1" value="SeataLoalBalancerFeignClient" style="rounded=0;whiteSpace=wrap;html=1;" vertex="1" parent="1">
          <mxGeometry x="370" y="170" width="170" height="40" as="geometry" />
        </mxCell>
        <mxCell id="9KcQcAq06cf9t4r9Tn52-2" value="Client" style="rounded=0;whiteSpace=wrap;html=1;" vertex="1" parent="1">
          <mxGeometry x="100" y="50" width="170" height="40" as="geometry" />
        </mxCell>
        <mxCell id="9KcQcAq06cf9t4r9Tn52-3" value="Feign" style="text;html=1;strokeColor=none;fillColor=none;align=center;verticalAlign=middle;whiteSpace=wrap;rounded=0;" vertex="1" parent="1">
          <mxGeometry x="90" y="10" width="60" height="30" as="geometry" />
        </mxCell>
        <mxCell id="9KcQcAq06cf9t4r9Tn52-5" style="edgeStyle=orthogonalEdgeStyle;rounded=0;orthogonalLoop=1;jettySize=auto;html=1;entryX=0.5;entryY=1;entryDx=0;entryDy=0;" edge="1" parent="1" source="9KcQcAq06cf9t4r9Tn52-4" target="9KcQcAq06cf9t4r9Tn52-2">
          <mxGeometry relative="1" as="geometry" />
        </mxCell>
        <mxCell id="9KcQcAq06cf9t4r9Tn52-4" value="LoalBalancerFeignClient" style="rounded=0;whiteSpace=wrap;html=1;" vertex="1" parent="1">
          <mxGeometry x="100" y="170" width="170" height="40" as="geometry" />
        </mxCell>
        <mxCell id="9KcQcAq06cf9t4r9Tn52-9" value="implements" style="text;html=1;strokeColor=none;fillColor=none;align=center;verticalAlign=middle;whiteSpace=wrap;rounded=0;" vertex="1" parent="1">
          <mxGeometry x="200" y="110" width="70" height="30" as="geometry" />
        </mxCell>
        <mxCell id="9KcQcAq06cf9t4r9Tn52-10" value="extends" style="text;html=1;strokeColor=none;fillColor=none;align=center;verticalAlign=middle;whiteSpace=wrap;rounded=0;" vertex="1" parent="1">
          <mxGeometry x="290" y="160" width="70" height="20" as="geometry" />
        </mxCell>
        <mxCell id="9KcQcAq06cf9t4r9Tn52-12" value="&lt;pre style=&quot;background-color: rgb(255, 255, 255); font-family: &amp;quot;Courier New&amp;quot;; font-size: 9pt;&quot;&gt;org.springframework.cloud.openfeign.ribbon&lt;/pre&gt;" style="text;html=1;strokeColor=none;fillColor=none;align=center;verticalAlign=middle;whiteSpace=wrap;rounded=0;" vertex="1" parent="1">
          <mxGeometry y="220" width="310" height="30" as="geometry" />
        </mxCell>
        <mxCell id="9KcQcAq06cf9t4r9Tn52-20" style="edgeStyle=orthogonalEdgeStyle;rounded=0;orthogonalLoop=1;jettySize=auto;html=1;entryX=1;entryY=0.5;entryDx=0;entryDy=0;" edge="1" parent="1" source="9KcQcAq06cf9t4r9Tn52-13" target="9KcQcAq06cf9t4r9Tn52-18">
          <mxGeometry relative="1" as="geometry" />
        </mxCell>
        <mxCell id="9KcQcAq06cf9t4r9Tn52-43" style="edgeStyle=orthogonalEdgeStyle;rounded=0;orthogonalLoop=1;jettySize=auto;html=1;" edge="1" parent="1" source="9KcQcAq06cf9t4r9Tn52-13" target="9KcQcAq06cf9t4r9Tn52-42">
          <mxGeometry relative="1" as="geometry" />
        </mxCell>
        <mxCell id="9KcQcAq06cf9t4r9Tn52-13" value="是否需要增强?" style="rhombus;whiteSpace=wrap;html=1;" vertex="1" parent="1">
          <mxGeometry x="945" y="300" width="80" height="80" as="geometry" />
        </mxCell>
        <mxCell id="9KcQcAq06cf9t4r9Tn52-19" style="edgeStyle=orthogonalEdgeStyle;rounded=0;orthogonalLoop=1;jettySize=auto;html=1;entryX=0.5;entryY=0;entryDx=0;entryDy=0;" edge="1" parent="1" source="9KcQcAq06cf9t4r9Tn52-14" target="9KcQcAq06cf9t4r9Tn52-13">
          <mxGeometry relative="1" as="geometry" />
        </mxCell>
        <mxCell id="9KcQcAq06cf9t4r9Tn52-14" value="TraceFeignAspect" style="rounded=0;whiteSpace=wrap;html=1;" vertex="1" parent="1">
          <mxGeometry x="900" y="130" width="170" height="40" as="geometry" />
        </mxCell>
        <mxCell id="9KcQcAq06cf9t4r9Tn52-15" value="拦截Feign.Client包下所有非final的方法" style="text;html=1;strokeColor=none;fillColor=none;align=center;verticalAlign=middle;whiteSpace=wrap;rounded=0;" vertex="1" parent="1">
          <mxGeometry x="1118" y="125" width="240" height="30" as="geometry" />
        </mxCell>
        <mxCell id="9KcQcAq06cf9t4r9Tn52-16" value="存在ribbion包， 并且是LoadBalancerFeignClient 子类 并且还没增强过(TraceFeignObjectWrapper.wrap()&lt;br style=&quot;border-color: var(--border-color); text-align: center;&quot;&gt;)&lt;br&gt;&lt;pre style=&quot;background-color: rgb(255, 255, 255); font-family: &amp;quot;Courier New&amp;quot;; font-size: 9pt;&quot;&gt;ribbonPresent &amp;amp;&amp;amp; bean &lt;span style=&quot;color:#000080;font-weight:bold;&quot;&gt;instanceof &lt;/span&gt;LoadBalancerFeignClient&lt;br&gt;      &amp;amp;&amp;amp; !(bean &lt;span style=&quot;color:#000080;font-weight:bold;&quot;&gt;instanceof &lt;/span&gt;TraceLoadBalancerFeignClient)&lt;/pre&gt;" style="text;html=1;strokeColor=none;fillColor=none;align=left;verticalAlign=middle;whiteSpace=wrap;rounded=0;" vertex="1" parent="1">
          <mxGeometry x="1010" y="180" width="560" height="85" as="geometry" />
        </mxCell>
        <mxCell id="9KcQcAq06cf9t4r9Tn52-25" style="edgeStyle=orthogonalEdgeStyle;rounded=0;orthogonalLoop=1;jettySize=auto;html=1;entryX=0.5;entryY=0;entryDx=0;entryDy=0;" edge="1" parent="1" source="9KcQcAq06cf9t4r9Tn52-18" target="9KcQcAq06cf9t4r9Tn52-21">
          <mxGeometry relative="1" as="geometry" />
        </mxCell>
        <mxCell id="9KcQcAq06cf9t4r9Tn52-18" value="&lt;span style=&quot;background-color: rgb(255, 255, 255); font-family: &amp;quot;Courier New&amp;quot;; font-size: 9pt;&quot;&gt;instrumentedFeignRibbonClient&lt;/span&gt;" style="rounded=0;whiteSpace=wrap;html=1;" vertex="1" parent="1">
          <mxGeometry x="657" y="320" width="170" height="40" as="geometry" />
        </mxCell>
        <mxCell id="9KcQcAq06cf9t4r9Tn52-27" style="edgeStyle=orthogonalEdgeStyle;rounded=0;orthogonalLoop=1;jettySize=auto;html=1;entryX=1;entryY=0.5;entryDx=0;entryDy=0;" edge="1" parent="1" source="9KcQcAq06cf9t4r9Tn52-21" target="9KcQcAq06cf9t4r9Tn52-33">
          <mxGeometry relative="1" as="geometry">
            <mxPoint x="593.5" y="470" as="targetPoint" />
          </mxGeometry>
        </mxCell>
        <mxCell id="9KcQcAq06cf9t4r9Tn52-29" style="edgeStyle=orthogonalEdgeStyle;rounded=0;orthogonalLoop=1;jettySize=auto;html=1;entryX=0.5;entryY=0;entryDx=0;entryDy=0;" edge="1" parent="1" source="9KcQcAq06cf9t4r9Tn52-21" target="9KcQcAq06cf9t4r9Tn52-28">
          <mxGeometry relative="1" as="geometry" />
        </mxCell>
        <mxCell id="9KcQcAq06cf9t4r9Tn52-21" value="类型判断" style="rhombus;whiteSpace=wrap;html=1;" vertex="1" parent="1">
          <mxGeometry x="702" y="430" width="80" height="80" as="geometry" />
        </mxCell>
        <mxCell id="9KcQcAq06cf9t4r9Tn52-22" value="Sleuth 通过切面,拦截所有的FeignClient对Feign 增强" style="text;html=1;strokeColor=none;fillColor=none;align=center;verticalAlign=middle;whiteSpace=wrap;rounded=0;" vertex="1" parent="1">
          <mxGeometry x="827" y="80" width="330" height="30" as="geometry" />
        </mxCell>
        <mxCell id="9KcQcAq06cf9t4r9Tn52-24" value="bean 实际类型LoadBalancerFeignClient?&lt;br&gt;AopUtils.getTargetClass() equals(LoadBalancerFeignClient.class)" style="text;html=1;strokeColor=none;fillColor=none;align=left;verticalAlign=middle;whiteSpace=wrap;rounded=0;" vertex="1" parent="1">
          <mxGeometry x="770" y="390" width="377" height="30" as="geometry" />
        </mxCell>
        <mxCell id="9KcQcAq06cf9t4r9Tn52-31" style="edgeStyle=orthogonalEdgeStyle;rounded=0;orthogonalLoop=1;jettySize=auto;html=1;" edge="1" parent="1" source="9KcQcAq06cf9t4r9Tn52-28" target="9KcQcAq06cf9t4r9Tn52-30">
          <mxGeometry relative="1" as="geometry" />
        </mxCell>
        <mxCell id="9KcQcAq06cf9t4r9Tn52-36" style="edgeStyle=orthogonalEdgeStyle;rounded=0;orthogonalLoop=1;jettySize=auto;html=1;entryX=0.5;entryY=1;entryDx=0;entryDy=0;" edge="1" parent="1" source="9KcQcAq06cf9t4r9Tn52-28" target="9KcQcAq06cf9t4r9Tn52-33">
          <mxGeometry relative="1" as="geometry" />
        </mxCell>
        <mxCell id="9KcQcAq06cf9t4r9Tn52-28" value="&lt;font face=&quot;Courier New&quot;&gt;&lt;span style=&quot;background-color: rgb(255, 255, 255);&quot;&gt;获取delegate属性&lt;/span&gt;&lt;/font&gt;" style="rounded=0;whiteSpace=wrap;html=1;" vertex="1" parent="1">
          <mxGeometry x="657" y="590" width="170" height="40" as="geometry" />
        </mxCell>
        <mxCell id="9KcQcAq06cf9t4r9Tn52-30" value="&lt;font face=&quot;Courier New&quot;&gt;&lt;span style=&quot;background-color: rgb(255, 255, 255);&quot;&gt;反射设置client的delegate属性&lt;/span&gt;&lt;/font&gt;" style="rounded=0;whiteSpace=wrap;html=1;" vertex="1" parent="1">
          <mxGeometry x="657" y="710" width="170" height="40" as="geometry" />
        </mxCell>
        <mxCell id="9KcQcAq06cf9t4r9Tn52-38" style="edgeStyle=orthogonalEdgeStyle;rounded=0;orthogonalLoop=1;jettySize=auto;html=1;entryX=1;entryY=0.5;entryDx=0;entryDy=0;" edge="1" parent="1" source="9KcQcAq06cf9t4r9Tn52-33" target="9KcQcAq06cf9t4r9Tn52-37">
          <mxGeometry relative="1" as="geometry" />
        </mxCell>
        <mxCell id="9KcQcAq06cf9t4r9Tn52-45" style="edgeStyle=orthogonalEdgeStyle;rounded=0;orthogonalLoop=1;jettySize=auto;html=1;entryX=0.5;entryY=0;entryDx=0;entryDy=0;exitX=0.5;exitY=0;exitDx=0;exitDy=0;" edge="1" parent="1" source="9KcQcAq06cf9t4r9Tn52-33" target="9KcQcAq06cf9t4r9Tn52-13">
          <mxGeometry relative="1" as="geometry">
            <Array as="points">
              <mxPoint x="455" y="260" />
              <mxPoint x="985" y="260" />
            </Array>
          </mxGeometry>
        </mxCell>
        <mxCell id="9KcQcAq06cf9t4r9Tn52-33" value="&lt;span style=&quot;background-color: rgb(255, 255, 255); font-family: &amp;quot;Courier New&amp;quot;; font-size: 9pt;&quot;&gt;new TraceFeignObjectWrapper&lt;/span&gt;" style="rounded=0;whiteSpace=wrap;html=1;" vertex="1" parent="1">
          <mxGeometry x="370" y="450" width="170" height="40" as="geometry" />
        </mxCell>
        <mxCell id="9KcQcAq06cf9t4r9Tn52-34" value="client对象的，旧的delegate" style="text;html=1;strokeColor=none;fillColor=none;align=center;verticalAlign=middle;whiteSpace=wrap;rounded=0;" vertex="1" parent="1">
          <mxGeometry x="850" y="600" width="150" height="30" as="geometry" />
        </mxCell>
        <mxCell id="9KcQcAq06cf9t4r9Tn52-35" value="&lt;pre style=&quot;background-color: rgb(255, 255, 255); font-family: &amp;quot;Courier New&amp;quot;; font-size: 9pt;&quot;&gt;client.getDelegate()&lt;/pre&gt;" style="text;html=1;strokeColor=none;fillColor=none;align=center;verticalAlign=middle;whiteSpace=wrap;rounded=0;" vertex="1" parent="1">
          <mxGeometry x="480" y="570" width="150" height="30" as="geometry" />
        </mxCell>
        <mxCell id="9KcQcAq06cf9t4r9Tn52-39" style="edgeStyle=orthogonalEdgeStyle;rounded=0;orthogonalLoop=1;jettySize=auto;html=1;entryX=0;entryY=0.5;entryDx=0;entryDy=0;exitX=0.5;exitY=1;exitDx=0;exitDy=0;" edge="1" parent="1" source="9KcQcAq06cf9t4r9Tn52-37" target="9KcQcAq06cf9t4r9Tn52-30">
          <mxGeometry relative="1" as="geometry" />
        </mxCell>
        <mxCell id="9KcQcAq06cf9t4r9Tn52-37" value="&lt;span style=&quot;background-color: rgb(255, 255, 255); font-family: &amp;quot;Courier New&amp;quot;; font-size: 9pt;&quot;&gt;new TraceLoadBalancerFeignClient&lt;/span&gt;" style="rounded=0;whiteSpace=wrap;html=1;" vertex="1" parent="1">
          <mxGeometry x="70" y="450" width="170" height="40" as="geometry" />
        </mxCell>
        <mxCell id="9KcQcAq06cf9t4r9Tn52-40" value="delegate = wrap 增强后的返回的client对象" style="text;html=1;strokeColor=none;fillColor=none;align=center;verticalAlign=middle;whiteSpace=wrap;rounded=0;" vertex="1" parent="1">
          <mxGeometry x="290" y="690" width="150" height="30" as="geometry" />
        </mxCell>
        <mxCell id="9KcQcAq06cf9t4r9Tn52-42" value="new LazyTracingFeignClient" style="rounded=0;whiteSpace=wrap;html=1;" vertex="1" parent="1">
          <mxGeometry x="1210" y="320" width="170" height="40" as="geometry" />
        </mxCell>
        <mxCell id="9KcQcAq06cf9t4r9Tn52-46" value="client = SeataLoadBalancerFeignClient&lt;br&gt;delegate = null" style="text;html=1;strokeColor=none;fillColor=none;align=left;verticalAlign=middle;whiteSpace=wrap;rounded=0;" vertex="1" parent="1">
          <mxGeometry x="765" y="530" width="235" height="30" as="geometry" />
        </mxCell>
        <mxCell id="9KcQcAq06cf9t4r9Tn52-47" value="是" style="text;html=1;strokeColor=none;fillColor=none;align=center;verticalAlign=middle;whiteSpace=wrap;rounded=0;" vertex="1" parent="1">
          <mxGeometry x="640" y="440" width="30" height="30" as="geometry" />
        </mxCell>
        <mxCell id="9KcQcAq06cf9t4r9Tn52-48" value="否" style="text;html=1;strokeColor=none;fillColor=none;align=center;verticalAlign=middle;whiteSpace=wrap;rounded=0;" vertex="1" parent="1">
          <mxGeometry x="710" y="520" width="30" height="30" as="geometry" />
        </mxCell>
        <mxCell id="9KcQcAq06cf9t4r9Tn52-49" value="LoadBalancerFeignClient" style="text;html=1;strokeColor=none;fillColor=none;align=center;verticalAlign=middle;whiteSpace=wrap;rounded=0;" vertex="1" parent="1">
          <mxGeometry x="580" y="410" width="130" height="30" as="geometry" />
        </mxCell>
        <mxCell id="9KcQcAq06cf9t4r9Tn52-50" value="wrap()" style="text;html=1;strokeColor=none;fillColor=none;align=center;verticalAlign=middle;whiteSpace=wrap;rounded=0;" vertex="1" parent="1">
          <mxGeometry x="390" y="330" width="56" height="30" as="geometry" />
        </mxCell>
        <mxCell id="9KcQcAq06cf9t4r9Tn52-51" value="得到wrap增强的对象" style="text;html=1;strokeColor=none;fillColor=none;align=center;verticalAlign=middle;whiteSpace=wrap;rounded=0;" vertex="1" parent="1">
          <mxGeometry x="250" y="430" width="120" height="30" as="geometry" />
        </mxCell>
        <mxCell id="9KcQcAq06cf9t4r9Tn52-52" value="client = SeataLoadBalancerFeignClient&lt;br&gt;delegate =&amp;nbsp;LazyTracingFeignClient&lt;br&gt;&amp;nbsp;LazyTracingFeignClient.delete = 旧的delegate&lt;br style=&quot;border-color: var(--border-color);&quot;&gt;&amp;nbsp;LazyTracingFeignClient..tracingFeignClient = null" style="text;html=1;strokeColor=none;fillColor=none;align=left;verticalAlign=middle;whiteSpace=wrap;rounded=0;" vertex="1" parent="1">
          <mxGeometry x="210" y="740" width="290" height="60" as="geometry" />
        </mxCell>
        <mxCell id="9KcQcAq06cf9t4r9Tn52-53" value="&lt;pre style=&quot;background-color: rgb(255, 255, 255); font-family: &amp;quot;Courier New&amp;quot;; font-size: 9pt;&quot;&gt;client.getDelegate()&lt;/pre&gt;" style="text;html=1;strokeColor=none;fillColor=none;align=center;verticalAlign=middle;whiteSpace=wrap;rounded=0;" vertex="1" parent="1">
          <mxGeometry x="460" y="280" width="150" height="30" as="geometry" />
        </mxCell>
        <mxCell id="9KcQcAq06cf9t4r9Tn52-54" value="&lt;pre style=&quot;background-color: rgb(255, 255, 255); font-family: &amp;quot;Courier New&amp;quot;; font-size: 9pt;&quot;&gt;client.getDelegate()&lt;/pre&gt;" style="text;html=1;strokeColor=none;fillColor=none;align=center;verticalAlign=middle;whiteSpace=wrap;rounded=0;" vertex="1" parent="1">
          <mxGeometry x="1040" y="300" width="150" height="30" as="geometry" />
        </mxCell>
        <mxCell id="9KcQcAq06cf9t4r9Tn52-87" value="" style="edgeStyle=orthogonalEdgeStyle;rounded=0;orthogonalLoop=1;jettySize=auto;html=1;" edge="1" parent="1" source="9KcQcAq06cf9t4r9Tn52-88" target="9KcQcAq06cf9t4r9Tn52-94">
          <mxGeometry relative="1" as="geometry" />
        </mxCell>
        <mxCell id="9KcQcAq06cf9t4r9Tn52-88" value="SeateLoadBalancerFeignClient" style="rounded=0;whiteSpace=wrap;html=1;" vertex="1" parent="1">
          <mxGeometry x="1220" y="710" width="170" height="40" as="geometry" />
        </mxCell>
        <mxCell id="9KcQcAq06cf9t4r9Tn52-89" style="edgeStyle=orthogonalEdgeStyle;rounded=0;orthogonalLoop=1;jettySize=auto;html=1;entryX=0.5;entryY=0;entryDx=0;entryDy=0;" edge="1" parent="1" source="9KcQcAq06cf9t4r9Tn52-90" target="9KcQcAq06cf9t4r9Tn52-97">
          <mxGeometry relative="1" as="geometry" />
        </mxCell>
        <mxCell id="9KcQcAq06cf9t4r9Tn52-90" value="this.delegate.execut()" style="rounded=0;whiteSpace=wrap;html=1;" vertex="1" parent="1">
          <mxGeometry x="1220" y="1024" width="170" height="40" as="geometry" />
        </mxCell>
        <mxCell id="9KcQcAq06cf9t4r9Tn52-91" style="edgeStyle=orthogonalEdgeStyle;rounded=0;orthogonalLoop=1;jettySize=auto;html=1;" edge="1" parent="1" source="9KcQcAq06cf9t4r9Tn52-92" target="9KcQcAq06cf9t4r9Tn52-90">
          <mxGeometry relative="1" as="geometry" />
        </mxCell>
        <mxCell id="9KcQcAq06cf9t4r9Tn52-92" value="LazyTracingFeignClient" style="rounded=0;whiteSpace=wrap;html=1;" vertex="1" parent="1">
          <mxGeometry x="1220" y="920" width="170" height="40" as="geometry" />
        </mxCell>
        <mxCell id="9KcQcAq06cf9t4r9Tn52-93" style="edgeStyle=orthogonalEdgeStyle;rounded=0;orthogonalLoop=1;jettySize=auto;html=1;" edge="1" parent="1" source="9KcQcAq06cf9t4r9Tn52-94" target="9KcQcAq06cf9t4r9Tn52-92">
          <mxGeometry relative="1" as="geometry" />
        </mxCell>
        <mxCell id="9KcQcAq06cf9t4r9Tn52-94" value="this.delegate.execut()" style="rounded=0;whiteSpace=wrap;html=1;" vertex="1" parent="1">
          <mxGeometry x="1220" y="800" width="170" height="40" as="geometry" />
        </mxCell>
        <mxCell id="9KcQcAq06cf9t4r9Tn52-95" style="edgeStyle=orthogonalEdgeStyle;rounded=0;orthogonalLoop=1;jettySize=auto;html=1;" edge="1" parent="1" source="9KcQcAq06cf9t4r9Tn52-97" target="9KcQcAq06cf9t4r9Tn52-99">
          <mxGeometry relative="1" as="geometry" />
        </mxCell>
        <mxCell id="9KcQcAq06cf9t4r9Tn52-96" style="edgeStyle=orthogonalEdgeStyle;rounded=0;orthogonalLoop=1;jettySize=auto;html=1;" edge="1" parent="1" source="9KcQcAq06cf9t4r9Tn52-97" target="9KcQcAq06cf9t4r9Tn52-101">
          <mxGeometry relative="1" as="geometry" />
        </mxCell>
        <mxCell id="9KcQcAq06cf9t4r9Tn52-97" value="traceingFeignClient == null？" style="rhombus;whiteSpace=wrap;html=1;" vertex="1" parent="1">
          <mxGeometry x="1230" y="1130" width="150" height="120" as="geometry" />
        </mxCell>
        <mxCell id="9KcQcAq06cf9t4r9Tn52-98" style="edgeStyle=orthogonalEdgeStyle;rounded=0;orthogonalLoop=1;jettySize=auto;html=1;entryX=0;entryY=0.5;entryDx=0;entryDy=0;" edge="1" parent="1" source="9KcQcAq06cf9t4r9Tn52-99" target="9KcQcAq06cf9t4r9Tn52-106">
          <mxGeometry relative="1" as="geometry" />
        </mxCell>
        <mxCell id="9KcQcAq06cf9t4r9Tn52-99" value="&lt;pre style=&quot;background-color: rgb(255, 255, 255); font-family: &amp;quot;Courier New&amp;quot;; font-size: 9pt;&quot;&gt;TracingFeignClient.create&lt;/pre&gt;" style="rounded=0;whiteSpace=wrap;html=1;" vertex="1" parent="1">
          <mxGeometry x="1520" y="1170" width="170" height="40" as="geometry" />
        </mxCell>
        <mxCell id="9KcQcAq06cf9t4r9Tn52-100" style="edgeStyle=orthogonalEdgeStyle;rounded=0;orthogonalLoop=1;jettySize=auto;html=1;exitX=0;exitY=0.5;exitDx=0;exitDy=0;entryX=0;entryY=0.5;entryDx=0;entryDy=0;" edge="1" parent="1" source="9KcQcAq06cf9t4r9Tn52-101" target="9KcQcAq06cf9t4r9Tn52-92">
          <mxGeometry relative="1" as="geometry">
            <mxPoint x="1150" y="960" as="targetPoint" />
            <Array as="points">
              <mxPoint x="1100" y="1400" />
              <mxPoint x="1100" y="940" />
            </Array>
          </mxGeometry>
        </mxCell>
        <mxCell id="9KcQcAq06cf9t4r9Tn52-101" value="this.delegate.execut()" style="rounded=0;whiteSpace=wrap;html=1;" vertex="1" parent="1">
          <mxGeometry x="1220" y="1380" width="170" height="40" as="geometry" />
        </mxCell>
        <mxCell id="9KcQcAq06cf9t4r9Tn52-102" value="this.delegate" style="text;html=1;strokeColor=none;fillColor=none;align=center;verticalAlign=middle;whiteSpace=wrap;rounded=0;" vertex="1" parent="1">
          <mxGeometry x="1400" y="1160" width="80" height="30" as="geometry" />
        </mxCell>
        <mxCell id="9KcQcAq06cf9t4r9Tn52-103" value="最终tracingFeignClient结果&lt;br&gt;TracingFeignClient.delegate = LazyTracingFeignClient&lt;br&gt;LazyTracingFeignClient.tracingFeignClient&amp;nbsp; = null" style="text;html=1;strokeColor=none;fillColor=none;align=left;verticalAlign=middle;whiteSpace=wrap;rounded=0;" vertex="1" parent="1">
          <mxGeometry x="1780" y="1400" width="310" height="50" as="geometry" />
        </mxCell>
        <mxCell id="9KcQcAq06cf9t4r9Tn52-104" style="edgeStyle=orthogonalEdgeStyle;rounded=0;orthogonalLoop=1;jettySize=auto;html=1;entryX=0;entryY=0.5;entryDx=0;entryDy=0;" edge="1" parent="1" source="9KcQcAq06cf9t4r9Tn52-106" target="9KcQcAq06cf9t4r9Tn52-108">
          <mxGeometry relative="1" as="geometry" />
        </mxCell>
        <mxCell id="9KcQcAq06cf9t4r9Tn52-105" style="edgeStyle=orthogonalEdgeStyle;rounded=0;orthogonalLoop=1;jettySize=auto;html=1;" edge="1" parent="1" source="9KcQcAq06cf9t4r9Tn52-106" target="9KcQcAq06cf9t4r9Tn52-110">
          <mxGeometry relative="1" as="geometry" />
        </mxCell>
        <mxCell id="9KcQcAq06cf9t4r9Tn52-106" value="&lt;pre style=&quot;background-color: rgb(255, 255, 255); font-family: &amp;quot;Courier New&amp;quot;; font-size: 9pt;&quot;&gt;delegateTarget &lt;/pre&gt;&lt;pre style=&quot;background-color: rgb(255, 255, 255); font-family: &amp;quot;Courier New&amp;quot;; font-size: 9pt;&quot;&gt;instanceof&lt;/pre&gt;&lt;pre style=&quot;background-color: rgb(255, 255, 255); font-family: &amp;quot;Courier New&amp;quot;; font-size: 9pt;&quot;&gt; TracingFeignClient?&lt;/pre&gt;" style="rhombus;whiteSpace=wrap;html=1;" vertex="1" parent="1">
          <mxGeometry x="1820" y="1130" width="150" height="120" as="geometry" />
        </mxCell>
        <mxCell id="9KcQcAq06cf9t4r9Tn52-107" style="edgeStyle=orthogonalEdgeStyle;rounded=0;orthogonalLoop=1;jettySize=auto;html=1;entryX=1;entryY=0.5;entryDx=0;entryDy=0;exitX=0.5;exitY=1;exitDx=0;exitDy=0;" edge="1" parent="1" source="9KcQcAq06cf9t4r9Tn52-108" target="9KcQcAq06cf9t4r9Tn52-101">
          <mxGeometry relative="1" as="geometry" />
        </mxCell>
        <mxCell id="9KcQcAq06cf9t4r9Tn52-108" value="&lt;pre style=&quot;background-color: rgb(255, 255, 255); font-family: &amp;quot;Courier New&amp;quot;; font-size: 9pt;&quot;&gt;delegate = TracingFeignClient&lt;/pre&gt;" style="rounded=0;whiteSpace=wrap;html=1;" vertex="1" parent="1">
          <mxGeometry x="2068" y="1170" width="170" height="40" as="geometry" />
        </mxCell>
        <mxCell id="9KcQcAq06cf9t4r9Tn52-109" style="edgeStyle=orthogonalEdgeStyle;rounded=0;orthogonalLoop=1;jettySize=auto;html=1;entryX=1;entryY=0.5;entryDx=0;entryDy=0;exitX=0.5;exitY=1;exitDx=0;exitDy=0;" edge="1" parent="1" source="9KcQcAq06cf9t4r9Tn52-110" target="9KcQcAq06cf9t4r9Tn52-101">
          <mxGeometry relative="1" as="geometry" />
        </mxCell>
        <mxCell id="9KcQcAq06cf9t4r9Tn52-110" value="&lt;pre style=&quot;background-color: rgb(255, 255, 255); font-family: &amp;quot;Courier New&amp;quot;; font-size: 9pt;&quot;&gt;this.delegate = delegate &lt;/pre&gt;" style="rounded=0;whiteSpace=wrap;html=1;" vertex="1" parent="1">
          <mxGeometry x="1810" y="1320" width="170" height="40" as="geometry" />
        </mxCell>
        <mxCell id="9KcQcAq06cf9t4r9Tn52-111" value="&lt;pre style=&quot;border-color: var(--border-color); font-size: 9pt; background-color: rgb(255, 255, 255); font-family: &amp;quot;Courier New&amp;quot;;&quot;&gt;最终处理 : TracingFeignClient.execute -&amp;gt; &lt;/pre&gt;&lt;pre style=&quot;border-color: var(--border-color); font-size: 9pt; background-color: rgb(255, 255, 255); font-family: &amp;quot;Courier New&amp;quot;;&quot;&gt;delegate.execute() = LazyTracingFeignClient.execute&lt;/pre&gt;&lt;pre style=&quot;border-color: var(--border-color); font-size: 9pt; background-color: rgb(255, 255, 255); font-family: &amp;quot;Courier New&amp;quot;;&quot;&gt;相互调用，直到栈溢出&lt;/pre&gt;" style="text;html=1;strokeColor=none;fillColor=none;align=left;verticalAlign=middle;whiteSpace=wrap;rounded=0;" vertex="1" parent="1">
          <mxGeometry x="1147" y="1440" width="410" height="90" as="geometry" />
        </mxCell>
      </root>
    </mxGraphModel>
  </diagram>
</mxfile>
